<svg xmlns="http://www.w3.org/2000/svg" xlink="http://www.w3.org/1999/xlink" width="0" height="0" style="display:none;"><symbol id="icon-default-home"><defs><style type="text/css"/></defs><path d="M877.963636 344.669091L549.585455 114.036364a63.930182 63.930182 0 0 0-73.192728-0.093091L146.385455 344.669091a63.697455 63.697455 0 0 0-27.275637 52.224v473.367273c0 35.141818 28.625455 63.767273 63.767273 63.767272h191.232v0.069819h275.781818v-0.093091h191.348364c35.141818 0 63.744-28.625455 63.744-63.767273V396.916364a63.813818 63.813818 0 0 0-26.996364-52.224zM589.544727 873.565091h-154.996363V594.664727A77.544727 77.544727 0 0 1 512 517.213091a77.544727 77.544727 0 0 1 77.451636 77.451636v278.900364h0.093091z m255.069091-3.304727a3.351273 3.351273 0 0 1-3.281454 3.304727h-191.348364V594.664727a138.053818 138.053818 0 0 0-137.890909-137.890909 138.053818 138.053818 0 0 0-137.890909 137.890909v278.900364H182.853818a3.351273 3.351273 0 0 1-3.304727-3.304727v-473.367273c0-1.024 0.581818-2.071273 1.419636-2.722909l330.007273-230.725818a3.397818 3.397818 0 0 1 3.770182 0l328.378182 230.632727c0.837818 0.651636 1.396364 1.605818 1.396363 2.722909v473.460364h0.116364z" p-id="4907" fill="#8a8a8a"/></symbol><symbol id="icon-dengji"><defs><style type="text/css"/></defs><path d="M511.8 465.1c-109.7 0-198.9-89.2-198.9-198.9S402.2 67.3 511.8 67.3c109.7 0 198.9 89.2 198.9 198.9s-89.2 198.9-198.9 198.9z m0-333.8c-74.4 0-134.9 60.5-134.9 134.9s60.5 134.9 134.9 134.9 134.9-60.5 134.9-134.9-60.5-134.9-134.9-134.9z m-414 824.8c-17.7 0-32-14.3-32-32 0-60.4 11.8-118.9 35.2-174.1 22.5-53.3 54.8-101.1 95.8-142.2 41.1-41.1 88.9-73.3 142.2-95.8 55.2-23.3 113.7-35.2 174.1-35.2 71.2 0 142.1 17.2 205 49.7 15.7 8.1 21.9 27.4 13.7 43.1-8.1 15.7-27.4 21.9-43.1 13.7-54.7-28.2-113.8-42.5-175.7-42.5-211.3 0-383.2 171.9-383.2 383.2 0 17.7-14.4 32.1-32 32.1z m581.8 0.9c-8.2 0-16.4-3.1-22.6-9.4-12.5-12.5-12.5-32.8 0-45.3l224.8-224.8-36.5-36.5-224.9 224.8c-12.5 12.5-32.8 12.5-45.3 0s-12.5-32.8 0-45.3l247.4-247.4c12.5-12.5 32.8-12.5 45.3 0l81.8 81.8c12.5 12.5 12.5 32.8 0 45.3L702.2 947.6c-6.2 6.3-14.4 9.4-22.6 9.4z" p-id="12772" fill="#8a8a8a"/><path d="M673.9 960.2h-79.4c-17.7 0-32-14.3-32-32v-79.4c0-17.7 14.3-32 32-32s32 14.3 32 32v47.4h47.4c17.7 0 32 14.3 32 32s-14.3 32-32 32z m189.2-186.6c-8.2 0-16.4-3.1-22.6-9.4l-81.8-81.8c-12.5-12.5-12.5-32.8 0-45.3s32.8-12.5 45.3 0l81.8 81.8c12.5 12.5 12.5 32.8 0 45.3-6.4 6.2-14.6 9.4-22.7 9.4z" p-id="12773" fill="#8a8a8a"/></symbol><symbol id="icon-department"><defs><style type="text/css"/></defs><path d="M885.3 778.2l-22-12.7c-0.6-0.4-1-1.1-0.8-1.8 1.3-5.9 2-11.9 2-18.2 0-6.2-0.7-12.3-2-18.2-0.2-0.7 0.2-1.5 0.8-1.8l22-12.7c3.8-2.2 5.1-7.1 2.9-10.9l-16-27.7c-2.2-3.8-7.1-5.1-10.9-2.9l-22 12.7c-0.6 0.4-1.4 0.3-2-0.2-8.9-8.2-19.6-14.5-31.5-18.2-0.7-0.2-1.2-0.9-1.2-1.6v-31.8c0-0.9-0.8-1.7-1.7-1.7h-44.6c-0.9 0-1.7 0.8-1.7 1.7V664c0 0.7-0.5 1.4-1.2 1.6-11.8 3.7-22.6 10-31.5 18.2-0.5 0.5-1.3 0.6-2 0.2l-22-12.7c-3.8-2.2-8.7-0.9-10.9 2.9l-16 27.7c-2.2 3.8-0.9 8.7 2.9 10.9l23.1 13.3c-1.5 6.2-2.3 12.7-2.3 19.4s0.8 13.2 2.3 19.4l-23 13.3c-3.8 2.2-5.1 7.1-2.9 10.9l16 27.7c2.2 3.8 7.1 5.1 10.9 2.9l23.1-13.4c9.1 8.6 20.1 15.2 32.4 19 0.7 0.2 1.2 0.9 1.2 1.6v31.8c0 0.9 0.8 1.7 1.7 1.7H803c0.9 0 1.7-0.8 1.7-1.7v-31.8c0-0.7 0.5-1.4 1.2-1.6 11.8-3.7 22.5-10 31.5-18.2 0.5-0.5 1.3-0.6 2-0.2l22 12.7c3.8 2.2 8.7 0.9 10.9-2.9l16-27.7c2.2-3.7 0.9-8.6-3-10.8z m-69.2-27l-0.3 1.8c-0.3 1.3-0.6 2.5-1 3.7-1.5 4.7-4 8.9-7.2 12.5-0.9 1-1.8 2-2.8 2.9-2.3 2.1-4.9 3.9-7.7 5.3-1.1 0.6-2.3 1.1-3.5 1.5l-1.8 0.6c-1.7 0.6-3.5 1-5.4 1.3s-3.7 0.4-5.7 0.4c-1 0-1.9 0-2.9-0.1-2.8-0.2-5.6-0.8-8.2-1.6-4.9-1.6-9.3-4.2-13-7.5-2.8-2.5-5.1-5.4-7-8.6-1.4-2.4-2.5-5-3.3-7.7-0.3-0.9-0.5-1.8-0.7-2.8-0.1-0.7-0.3-1.4-0.4-2-0.2-1.2-0.3-2.3-0.4-3.5 0-0.6-0.1-1.3-0.1-1.9s0-1.3 0.1-1.9c0.1-1.3 0.2-2.5 0.4-3.7l0.3-1.8c0.6-2.8 1.5-5.5 2.7-8 1.6-3.4 3.8-6.5 6.3-9.1 0.6-0.7 1.3-1.3 2-1.9 3.7-3.3 8.1-5.9 12.9-7.5 1.7-0.6 3.5-1 5.4-1.3 0.5-0.1 0.9-0.1 1.4-0.2 1.4-0.2 2.8-0.3 4.3-0.3 1.4 0 2.8 0.1 4.1 0.2l1.8 0.3c1.8 0.3 3.5 0.7 5.1 1.2 2.4 0.8 4.7 1.8 6.9 3.1s4.2 2.7 6 4.4c1.4 1.2 2.7 2.6 3.8 4 2.3 2.9 4.2 6.1 5.6 9.6 0.7 1.8 1.2 3.6 1.6 5.5l0.3 1.8c0.3 1.8 0.4 3.7 0.4 5.6 0.4 1.9 0.2 3.8 0 5.7zM736.9 587.5c8.3-10.3 6.7-25.4-3.7-33.7-28-22.5-58.7-38.8-91.1-48.6-1.5-0.4-1.6-2.5-0.2-3.1 97.2-43.6 148.2-172.4 57.3-290.8l-0.3-0.3c-145.3-111.5-306.2-9.4-306.2 129.6 0 71.9 43.1 133.9 104.8 161.6 1.4 0.6 1.3 2.7-0.2 3.1-14.2 4.3-28.1 9.8-41.7 16.7-34.5 17.4-65.5 42.2-92 73.7-56 66.6-85.8 155.8-83.2 250 0 0.4 0.2 0.8 0.4 1.1 21.1 23.1 47.4 8.5 47.4-12.2 0-161 108.3-292 241.5-292 47.7 0 93.8 16.8 133.4 48.7 10.3 8.2 25.4 6.6 33.8-3.8zM475.2 434.6C369.9 297.3 526.4 140.7 663.8 246c0.1 0.1 0.3 0.2 0.3 0.3 105.4 137.4-51.2 294-188.6 188.7-0.1-0.1-0.2-0.3-0.3-0.4z" p-id="2249" fill="#cdcdcd"/><path d="M351.7 513.3c13.3 0 24-10.7 24-24s-10.7-24-24-24h-2.3c-47.2-1.2-85.2-40-85.2-87.5 0-51.6 44.8-92.9 97.6-87 0.4 0 1-0.1 1.3-0.4 24.4-21.2 9.7-48.2-11.3-48.2-74.7 0-135.5 60.8-135.5 135.5 0 42.6 19.7 80.6 50.5 105.5 1 0.8 0.8 2.3-0.3 2.8-0.3 0.1-0.5 0.3-0.8 0.4-25.9 13.4-49.1 32.4-68.9 56.6-42.1 51.4-64.3 120.4-61.8 192.9 0 0.4 0.2 0.8 0.4 1.1 21.1 23.1 47.4 8.5 47.4-12.3 0-115.7 74.6-210 166.7-211.5 0.7 0.1 1.4 0.1 2.2 0.1z" p-id="2250" fill="#cdcdcd"/></symbol><symbol id="icon-exit"><defs><style type="text/css"/></defs><path d="M172.8 960c-64 0-108.8-44.8-108.8-96v-704C64 108.8 115.2 64 172.8 64H512v64H172.8c-19.2 0-32 12.8-32 32v704c0 19.2 19.2 32 38.4 32H512v64H172.8z m128-473.6h544l-147.2-147.2 51.2-51.2 185.6 185.6c19.2 12.8 25.6 32 25.6 51.2s-6.4 38.4-19.2 51.2l-185.6 185.6-51.2-51.2 147.2-147.2H300.8V486.4z" fill="#666666" p-id="5671"/></symbol><symbol id="icon-fabu"><defs><style type="text/css"/></defs><path d="M992.64 32a106.88 106.88 0 0 0-106.24-27.52L78.08 234.88A108.16 108.16 0 0 0 32 415.36l174.08 174.72a32 32 0 0 0 45.44-45.44L76.8 369.92a44.16 44.16 0 0 1 19.2-73.6L903.68 64a41.6 41.6 0 0 1 8.96 0L320 658.56a32.64 32.64 0 0 0-9.6 22.4v304a32 32 0 0 0 64 0v-226.56L608 992a106.88 106.88 0 0 0 76.16 32 109.44 109.44 0 0 0 27.52-3.84 106.88 106.88 0 0 0 76.8-74.88l231.04-807.68A106.24 106.24 0 0 0 992.64 32z m-264.96 896a44.16 44.16 0 0 1-73.6 19.2l-266.24-266.24L960 110.72a42.24 42.24 0 0 1 0 9.6z" fill="#cdcdcd" p-id="8079"/></symbol><symbol id="icon-finance"><defs><style type="text/css"/></defs><path d="M786.2 603.9h30v30h-30z" fill="#8a8a8a" p-id="3398"/><path d="M867.6 320h-6.3v-50.7c0-60.7-49.3-110-110-110H623.9l-20.3-40c-5.6-11-15.2-19.1-27.1-22.7s-24.3-2.2-35.1 3.8L174.2 306.7c-9.9-9.1-16.1-22.2-16.1-36.7v-0.7c0-27.6 22.4-50 50-50h121.8l106.8-60H208.1c-60.7 0-110 49.3-110 110V867.6c0 33.1 26.9 60 60 60h709.5c33.1 0 60-26.9 60-60V380c0-33.1-26.9-60-60-60z m0 344.8H764.9c-25.3 0-45.9-20.6-45.9-45.9 0-25.3 20.6-45.9 45.9-45.9h102.7v91.8zM751.2 219.3c27.6 0 50 22.4 50 50V320h-95.7l-51.2-100.7h96.9z m-195.1-92.7c3.6-2 7.8-2.5 11.7-1.3 3.9 1.2 7.2 3.9 9 7.6L671.9 320h-460l344.2-193.4z m311.5 741H158.2h-0.1V368s0.1 0 0.1 0.1c0.8 0.4 1.7 0.8 2.5 1.2 0.3 0.1 0.6 0.3 0.8 0.4 0.6 0.3 1.2 0.6 1.8 0.8 0.3 0.1 0.7 0.3 1 0.4 0.6 0.3 1.2 0.5 1.8 0.8 0.3 0.1 0.7 0.3 1 0.4 0.6 0.3 1.3 0.5 1.9 0.7l0.9 0.3 2.4 0.9c0.1 0 0.3 0.1 0.4 0.1 0.9 0.3 1.9 0.6 2.9 0.9 0.2 0.1 0.5 0.1 0.7 0.2l2.1 0.6c0.3 0.1 0.7 0.2 1 0.3 0.6 0.2 1.3 0.3 1.9 0.5 0.4 0.1 0.7 0.2 1.1 0.3 0.6 0.2 1.3 0.3 1.9 0.4 0.3 0.1 0.7 0.2 1 0.2 0.7 0.2 1.5 0.3 2.2 0.4 0.3 0 0.5 0.1 0.8 0.1 1 0.2 2 0.3 3 0.5 0.2 0 0.4 0.1 0.6 0.1 0.8 0.1 1.6 0.2 2.5 0.3 0.3 0 0.7 0.1 1 0.1 0.7 0.1 1.4 0.2 2 0.2 0.4 0 0.8 0.1 1.1 0.1 0.7 0.1 1.3 0.1 2 0.1 0.4 0 0.8 0.1 1.1 0.1 0.7 0 1.4 0.1 2.1 0.1H867.1s0.1 0.1 0.1 0v163H764.9c-41.9 0-75.9 34.1-75.9 75.9 0 41.9 34.1 75.9 75.9 75.9h102.7v173.2s-0.1 0 0 0z" fill="#8a8a8a" p-id="3399"/></symbol><symbol id="icon-guanli"><defs><style type="text/css"/></defs><path d="M246.6288 259.328c0-105.76 87.488-193.312 193.248-193.312 105.76 0 193.312 87.552 193.312 193.312s-87.552 193.28-193.312 193.28c-105.792 0-193.248-87.52-193.248-193.28zM123.2368 947.232a57.216 57.216 0 0 1-57.984-58.016c0-193.28 149.536-353.056 338.784-371.232h39.84c43.712-3.424 105.664-14.784 138.112-43.776l14.816-10.816c61.984-51.136 98.304-123.904 98.304-204.064 0-142.112-116.608-258.688-262.048-258.688-134.752 0-251.264 116.576-251.264 258.688 0 80.16 36.352 152.928 98.336 204.064l18.176 10.816-18.144 7.392C112.4208 546.976-0.0912 707.264-0.0912 889.216a122.752 122.752 0 0 0 123.904 123.904h331.392c10.816 0 28.992-10.784 28.992-32.96 0-25.568-18.176-32.928-28.992-32.928H123.2368z m840.768-145.504c-54.56 7.36-94.944 51.04-94.944 109.056 0 10.816 3.424 25.6 7.392 33.024l-47.2 25.568-18.144-18.176c-21.664-14.816-39.808-21.568-61.984-21.568-18.272 0-39.808 7.328-61.984 21.568-7.392 7.328-14.784 10.816-18.24 18.176l-43.712-25.568c3.392-7.424 7.36-21.632 7.36-33.024a109.696 109.696 0 0 0-94.944-109.056c0-7.424-3.456-21.632-3.456-36.448 0-10.816 3.456-25.6 3.456-36.384 54.496-7.424 94.944-51.2 94.944-109.152 0-10.848-3.392-25.568-7.36-32.928l47.2-25.632c3.392 3.424 10.72 10.816 18.176 14.816 21.536 14.752 39.808 21.568 58.016 21.568 18.144 0 36.352-7.36 57.92-21.568 7.456-7.36 14.784-10.816 18.272-14.816l47.168 25.632c-3.392 7.36-7.456 21.6-7.456 32.928a109.824 109.824 0 0 0 95.04 109.152c0 7.36 3.392 21.6 3.392 36.384 5.152 10.784 1.088 25.568 1.088 36.448z m51.232-91.008c-3.488-18.24-18.272-32.992-32.992-32.992h-3.456c-32.896 0-57.92-25.6-57.92-57.984 0-7.392 3.392-18.24 3.392-21.6 7.328-18.176 0-39.84-14.816-51.168l-65.344-36.384h-18.24c-10.72 0-25.536 3.392-32.928 14.752-7.392 7.424-29.024 25.6-43.744 25.6-14.816 0-36.448-18.176-47.264-25.6-7.328-7.36-18.176-14.752-32.96-14.752-7.328 0-10.752 0-14.784 3.392l-69.312 36.384c-14.816 10.816-21.664 32.96-14.816 51.136 0 0 3.392 10.848 3.392 21.632a57.12 57.12 0 0 1-57.92 58.016h-3.488c-14.784 0-28.992 14.816-32.96 32.96 0 3.424-7.36 28.992-7.36 54.624 0 21.632 3.392 51.168 7.36 54.464 3.456 18.272 18.144 33.056 32.96 33.056h3.488c32.96 0 57.92 25.6 57.92 58.016 0 7.328-3.392 18.144-3.392 21.504-7.328 18.272 0 39.744 14.816 51.168l65.312 36.48c7.456-3.424 10.88-3.424 18.208-3.424 10.816 0 25.6-3.392 33.056-14.848 7.328-7.36 28.96-28.864 47.168-28.864 14.784 0 39.712 18.144 47.168 28.864 7.36 7.424 18.208 14.848 32.992 14.848 7.328 0 10.784 0 18.144-3.392l65.344-36.416c14.784-10.784 21.664-32.928 14.784-51.232 0 0-3.36-10.72-3.36-21.536 0-32.992 25.6-58.016 58.016-58.016h3.392c14.752 0 28.992-14.816 32.928-32.96 0 0 7.36-28.96 7.36-54.624-6.784-18.176-10.144-47.168-10.144-51.104z m-266.048 101.76c-25.6 0-47.264-21.632-47.264-47.2 0-25.6 21.664-47.2 47.264-47.2 25.536 0 47.168 21.6 47.168 47.2 0.512 25.568-21.664 47.2-47.168 47.2z m18.144-145.536c-69.376-14.816-131.328 47.168-116.576 119.936 7.424 39.776 39.84 72.736 80.128 80.096 69.44 14.88 131.392-47.104 116.608-116.48-6.816-43.2-39.808-76.192-80.16-83.552z" p-id="4865" fill="#8a8a8a"/></symbol><symbol id="icon-horn"><defs><style type="text/css"/></defs><path d="M340.100754 835.974095c-110.445714 65.828571-210.407619 54.247619-282.136381-38.619428-71.558095-92.647619-58.197333-192.536381 32.182857-283.696762 2.925714-6.192762 7.241143-11.849143 12.848762-16.505905 208.749714-173.421714 312.807619-317.342476 316.123429-425.496381 1.389714-45.83619 59.538286-64.560762 87.430095-28.184381l397.726476 518.656c24.600381 32.085333 1.731048 78.433524-38.692571 78.433524-102.424381 0-203.215238 23.649524-302.567619 71.338667l85.991619 106.983619c43.227429 53.784381 33.401905 131.462095-21.918476 173.494857-55.320381 42.008381-135.192381 32.475429-178.41981-21.308953l-108.568381-135.094857zM201.202469 541.793524l23.795809 32.475428c41.935238 55.881143 74.849524 100.156952 98.816 132.876191 7.168 9.825524 13.55581 18.602667 19.163429 26.38019 138.166857-104.374857 281.088-166.15619 428.275809-184.612571L492.408564 185.295238c-42.349714 107.715048-139.873524 225.840762-291.206095 356.498286z m140.921904 192.365714l25.965715 35.401143a461.799619 461.799619 0 0 0-6.948572-10.361905c-4.681143-6.777905-10.727619-15.36-18.163809-25.673143l-0.828953 0.633905z m-209.67619-120.710095c-31.622095 44.178286-29.330286 82.822095 2.681905 124.294095 31.256381 40.448 66.755048 52.516571 115.321904 34.304l-5.339428-7.314286a15604.443429 15604.443429 0 0 0-112.688762-151.283809zM505.647421 925.257143c18.334476 22.820571 53.321143 26.989714 77.190095 8.874667 22.625524-17.188571 26.477714-47.835429 9.118476-69.412572l-73.142857-91.038476-86.454857 60.367238 73.289143 91.184762z m330.020571-622.128762a36.571429 36.571429 0 0 1-45.251047-57.465905l79.847619-62.854095a36.571429 36.571429 0 1 1 45.226666 57.465905l-79.823238 62.854095z m91.014096 141.702095a36.571429 36.571429 0 1 1-24.722286-68.827428l45.275428-16.262096a36.571429 36.571429 0 1 1 24.722286 68.827429l-45.275428 16.262095zM734.048183 174.738286a36.571429 36.571429 0 0 1-68.510476-25.575619l39.009523-104.472381a36.571429 36.571429 0 0 1 68.510477 25.575619l-39.009524 104.472381z" p-id="2384" fill="#bfbfbf"/></symbol><symbol id="icon-logo"><defs><style type="text/css"/></defs><path d="M923.611429 32.402286h225.645714L585.069714 1018.88 20.882286 32.402286h431.616l132.571428 228.754285L714.861714 32.402286h208.749715z" fill="#41B883" p-id="4195"/><path d="M20.882286 32.402286L585.069714 1018.88 1149.293714 32.402286h-225.682285L585.069714 624.274286 243.748571 32.402286H20.882286z" fill="#41B883" p-id="4196"/><path d="M243.748571 32.402286l341.321143 594.761143L923.611429 32.402286h-208.749715L585.069714 261.12 452.498286 32.402286H243.748571z" fill="#35495E" p-id="4197"/></symbol><symbol id="icon-menu"><defs><style type="text/css"/></defs><path d="M334.933333 187.306667h561.28v123.306666H334.933333zM334.933333 449.6h561.28v123.306667H334.933333zM334.933333 713.28h561.28v123.306667H334.933333zM189.44 187.306667a61.653333 61.653333 0 1 0 61.546667 61.653333 61.546667 61.546667 0 0 0-61.546667-61.653333zM189.44 449.28a61.546667 61.546667 0 1 0 61.546667 61.546667 61.546667 61.546667 0 0 0-61.546667-61.546667zM189.44 712.426667a61.546667 61.546667 0 1 0 61.546667 61.546666 61.546667 61.546667 0 0 0-61.546667-61.546666z" p-id="4053" fill="#8a8a8a"/></symbol><symbol id="icon-organizational"><defs><style type="text/css"/></defs><path d="M927.68 616H765.63a28.7 28.7 0 0 0-3.43-13.34L656.74 406.31a30.64 30.64 0 0 0 23-29.63v-216.8a30.62 30.62 0 0 0-30.59-30.59h-274.2a30.62 30.62 0 0 0-30.59 30.59v216.8a30.64 30.64 0 0 0 24.12 29.89l-107 199.18a28.7 28.7 0 0 0-3.42 14.31H96.32a30.62 30.62 0 0 0-30.59 30.59v216.8A30.62 30.62 0 0 0 96.32 898h274.21a30.62 30.62 0 0 0 30.59-30.59V757.58h221.77v105.77a30.62 30.62 0 0 0 30.59 30.59h274.2a30.62 30.62 0 0 0 30.59-30.59v-216.8A30.62 30.62 0 0 0 927.68 616zM402 187h220v162.58H402z m-58.57 653.35h-220V677.74h220z m279.46-193.8v53.35H401.11v-49.25a30.62 30.62 0 0 0-30.59-30.59h-51.25l108.82-202.59a28.75 28.75 0 0 0 3.23-10.21h164.19a28.7 28.7 0 0 0 3.43 13.34L703.88 616h-50.41a30.62 30.62 0 0 0-30.58 30.55z m277.7 189.7h-220V673.64h220z" p-id="3317" fill="#cdcdcd"/></symbol><symbol id="icon-pen"><defs><style type="text/css"/></defs><path d="M633.024377 225.946009 141.482315 717.492164l-0.084934 0-0.01228 0.073678-0.023536 0 0.023536 0.011256L62.537312 960.212208l242.658645-78.818113 0.01228 0.011256 0.011256-0.011256 0.061398-0.024559-0.01228-0.036839 491.577878-491.577878L633.024377 225.946009zM254.106372 743.891418l-27.01426-27.001981 406.371264-406.347728 26.990724 26.978445L254.106372 743.891418z" p-id="14313" fill="#e6e6e6" data-spm-anchor-id="a313x.7781069.0.i10" class="selected"/><path d="M796.480146 62.47182 688.651302 170.323177 852.449879 334.127893 960.302259 226.287793Z" p-id="14314" fill="#e6e6e6"/></symbol><symbol id="icon-position"><defs><style type="text/css"/></defs><path d="M812.6 778.2l-22-12.7c-0.6-0.4-1-1.1-0.8-1.8 1.3-5.9 2-11.9 2-18.2 0-6.2-0.7-12.3-2-18.2-0.2-0.7 0.2-1.5 0.8-1.8l22-12.7c3.8-2.2 5.1-7.1 2.9-10.9l-16-27.7c-2.2-3.8-7.1-5.1-10.9-2.9l-22 12.7c-0.6 0.4-1.4 0.3-2-0.2-8.9-8.2-19.6-14.5-31.5-18.2-0.7-0.2-1.2-0.9-1.2-1.6v-31.8c0-0.9-0.8-1.7-1.7-1.7h-44.6c-0.9 0-1.7 0.8-1.7 1.7V664c0 0.7-0.5 1.4-1.2 1.6-11.8 3.7-22.6 10-31.5 18.2-0.5 0.5-1.3 0.6-2 0.2l-22-12.7c-3.8-2.2-8.7-0.9-10.9 2.9l-16 27.7c-2.2 3.8-0.9 8.7 2.9 10.9l23.1 13.3c-1.5 6.2-2.3 12.7-2.3 19.4s0.8 13.2 2.3 19.4l-23.1 13.3c-3.8 2.2-5.1 7.1-2.9 10.9l16 27.7c2.2 3.8 7.1 5.1 10.9 2.9l23.1-13.4c9.1 8.6 20.1 15.2 32.4 19 0.7 0.2 1.2 0.9 1.2 1.6v31.8c0 0.9 0.8 1.7 1.7 1.7h44.6c0.9 0 1.7-0.8 1.7-1.7v-31.8c0-0.7 0.5-1.4 1.2-1.6 11.8-3.7 22.5-10 31.5-18.2 0.5-0.5 1.3-0.6 2-0.2l22 12.7c3.8 2.2 8.7 0.9 10.9-2.9l16-27.7c2.2-3.7 0.9-8.6-2.9-10.8z m-69.3-27l-0.3 1.8c-0.3 1.3-0.6 2.5-1 3.7-1.5 4.7-4 8.9-7.2 12.5-0.9 1-1.8 2-2.8 2.9-2.3 2.1-4.9 3.9-7.7 5.3-1.1 0.6-2.3 1.1-3.5 1.5l-1.8 0.6c-1.7 0.6-3.5 1-5.4 1.3s-3.7 0.4-5.7 0.4c-1 0-1.9 0-2.9-0.1-2.8-0.2-5.6-0.8-8.2-1.6-4.9-1.6-9.3-4.2-13-7.5-2.8-2.5-5.1-5.4-7-8.6-1.4-2.4-2.5-5-3.3-7.7-0.3-0.9-0.5-1.8-0.7-2.8-0.1-0.7-0.3-1.4-0.4-2-0.2-1.2-0.3-2.3-0.4-3.5 0-0.6-0.1-1.3-0.1-1.9s0-1.3 0.1-1.9c0.1-1.3 0.2-2.5 0.4-3.7l0.3-1.8c0.6-2.8 1.5-5.5 2.7-8 1.6-3.4 3.8-6.5 6.3-9.1 0.6-0.7 1.3-1.3 2-1.9 3.7-3.3 8.1-5.9 12.9-7.5 1.7-0.6 3.5-1 5.4-1.3 0.5-0.1 0.9-0.1 1.4-0.2 1.4-0.2 2.8-0.3 4.3-0.3 1.4 0 2.8 0.1 4.1 0.2l1.8 0.3c1.8 0.3 3.5 0.7 5.1 1.2 2.4 0.8 4.7 1.8 6.9 3.1s4.2 2.7 6 4.4c1.4 1.2 2.7 2.6 3.8 4 2.3 2.9 4.2 6.1 5.6 9.6 0.7 1.8 1.2 3.6 1.6 5.5l0.3 1.8c0.3 1.8 0.4 3.7 0.4 5.6 0.4 1.9 0.3 3.8 0 5.7zM664.1 587.5c8.3-10.3 6.7-25.4-3.7-33.7-28-22.5-58.7-38.8-91.1-48.6-1.5-0.4-1.6-2.5-0.2-3.1 97.2-43.6 148.2-172.4 57.3-290.8l-0.3-0.3c-145.3-111.5-306.2-9.4-306.2 129.6 0 71.9 43.1 133.9 104.8 161.6 1.4 0.6 1.3 2.7-0.2 3.1-14.2 4.3-28.1 9.8-41.7 16.7-34.5 17.4-65.5 42.2-92 73.7-56 66.6-85.8 155.8-83.2 250 0 0.4 0.2 0.8 0.4 1.1 21.1 23.1 47.4 8.5 47.4-12.2 0-161 108.3-292 241.5-292 47.7 0 93.8 16.8 133.4 48.7 10.4 8.2 25.5 6.6 33.8-3.8zM402.5 434.6C297.1 297.3 453.7 140.7 591.1 246c0.1 0.1 0.3 0.2 0.3 0.3 105.3 137.4-51.3 294-188.6 188.7-0.1-0.1-0.3-0.3-0.3-0.4z" p-id="2487" fill="#cdcdcd"/></symbol><symbol id="icon-process"><defs><style type="text/css"/></defs><path d="M510.207177 286.360248c61.620491 0 111.573808-49.953317 111.573808-111.573808 0-61.620491-49.953317-111.573808-111.573808-111.573808-61.620491 0-111.572784 49.953317-111.572784 111.573808 0 61.620491 49.953317 111.573808 111.572784 111.573808z m0-167.218904c30.682772 0 55.64612 24.962324 55.646119 55.64612 0 30.682772-24.962324 55.64612-55.646119 55.646119-30.682772 0-55.645096-24.962324-55.645096-55.646119s24.962324-55.64612 55.645096-55.64612zM174.697362 582.563105c-61.620491 0-111.573808 49.953317-111.573808 111.573808 0 61.620491 49.953317 111.573808 111.573808 111.573807S286.27117 755.757403 286.27117 694.136913c-0.001024-61.620491-49.953317-111.573808-111.573808-111.573808z m0 167.218903c-30.682772 0-55.64612-24.962324-55.64612-55.646119 0-30.682772 24.962324-55.64612 55.64612-55.64612s55.64612 24.962324 55.64612 55.64612c-0.001024 30.683795-24.963348 55.64612-55.64612 55.646119zM845.950438 582.563105c-61.620491 0-111.573808 49.953317-111.573808 111.573808 0 61.620491 49.953317 111.573808 111.573808 111.573807s111.573808-49.953317 111.573807-111.573807c0-61.620491-49.953317-111.573808-111.573807-111.573808z m0 167.218903c-30.683795 0-55.64612-24.962324-55.64612-55.646119 0-30.682772 24.962324-55.64612 55.64612-55.64612 30.682772 0 55.64612 24.962324 55.646119 55.64612s-24.963348 55.64612-55.646119 55.646119zM509.424928 879.615787c-79.713568 0-157.405987-27.895756-218.755147-78.525861l-35.610732 43.119906c71.35764 58.904123 161.694018 91.333643 254.364856 91.333643 93.463324 0 184.400723-32.934295 256.044027-92.726127l-35.82882-42.92844c-61.620491 51.408258-139.818708 79.726879-220.214184 79.726879zM853.375654 535.665062h55.927688c0-154.825796-90.704977-297.157118-231.098085-362.601821l-23.622058 50.684371c120.758059 56.310621 198.792455 178.734542 198.792455 311.91745zM364.266658 223.747612l-23.622058-50.684371c-140.379797 65.444702-231.084775 207.777049-231.084775 362.601821h55.927688c0-133.182908 78.034396-255.621162 198.779145-311.91745z" fill="#dbdbdb" p-id="6375"/></symbol><symbol id="icon-ranking"><defs><style type="text/css"/></defs><path d="M870.195543 715.396433 870.195543 433.524694 650.96447 433.524694 650.96447 182.973288 369.089661 182.973288l0 187.91381L149.856541 370.887099 149.856541 715.396433l-62.638619 0 0 125.278261 845.617263 0L932.835186 715.396433 870.195543 715.396433zM838.876234 464.844004 838.876234 715.396433 650.96447 715.396433 650.96447 464.844004 838.876234 464.844004zM400.408971 214.291574l219.235167 0 0 219.23312L619.644137 715.396433 400.408971 715.396433 400.408971 370.887099 400.408971 214.291574zM181.175851 402.206408 369.089661 402.206408 369.089661 715.396433 181.175851 715.396433 181.175851 402.206408zM901.514853 809.354362 118.537232 809.354362l0-62.638619 31.318286 0 219.23312 0 31.31931 0 219.235167 0 31.31931 0 219.231073 0 31.31931 0L901.512806 809.354362z" p-id="5314" fill="#cdcdcd"/></symbol><symbol id="icon-reset"><defs><style type="text/css"/></defs><path d="M181.731 569.606l63.275-8.713A331.732 331.732 0 0 1 242.255 501l-63.809-2.835a395.86 395.86 0 0 0 3.285 71.441z" fill="#8a8a8a" p-id="3281"/><path d="M569.205 906.945c52.791 0 104.019-10.346 152.263-30.752 46.581-19.703 88.409-47.902 124.321-83.814 35.912-35.912 64.111-77.74 83.814-124.322 20.405-48.244 30.752-99.471 30.752-152.263 0-52.791-10.346-104.019-30.752-152.263-19.703-46.581-47.902-88.409-83.814-124.321-35.912-35.912-77.74-64.111-124.321-83.814-48.244-20.405-99.472-30.752-152.263-30.752-101.406 0-197.547 38.644-270.712 108.813-72.938 69.952-115.572 163.96-120.047 264.706L242.255 501c7.783-175.224 151.397-312.483 326.95-312.483 180.462 0 327.278 146.817 327.278 327.278S749.667 843.074 569.205 843.074c-69.625 0-136.091-21.563-192.21-62.357L339.44 832.38c67.106 48.781 146.558 74.565 229.765 74.565z" fill="#8a8a8a" p-id="3282"/><path d="M222.367 629.329c8.173 0 16.346-3.118 22.581-9.354l117.233-117.232c12.472-12.471 12.472-32.692 0-45.164-12.471-12.472-32.692-12.472-45.163 0L199.786 574.811c-12.472 12.472-12.472 32.693 0 45.164 6.236 6.236 14.409 9.354 22.581 9.354z" fill="#8a8a8a" p-id="3283"/><path d="M215.632 631.398c8.174 0 16.345-3.117 22.581-9.354 12.472-12.471 12.472-32.692 0-45.164L120.981 459.648c-12.47-12.471-32.691-12.471-45.163 0-12.472 12.472-12.472 32.692 0 45.164l117.233 117.232c6.234 6.235 14.409 9.354 22.581 9.354z" fill="#8a8a8a" p-id="3284"/></symbol><symbol id="icon-right"><defs><style type="text/css"/></defs><path d="M428.100267 624.401067l48.264533 48.264533L637.0304 512l-160.6656-160.6656-48.264533 48.264533L540.501333 512z" p-id="3729" fill="#1296db"/><path d="M512 819.2a307.2 307.2 0 1 0 0-614.4 307.2 307.2 0 0 0 0 614.4z m0 68.266667C304.64 887.466667 136.533333 719.36 136.533333 512S304.64 136.533333 512 136.533333s375.466667 168.106667 375.466667 375.466667-168.106667 375.466667-375.466667 375.466667z" p-id="3730" fill="#1296db"/></symbol><symbol id="icon-tabs"><defs><style type="text/css"/></defs><path d="M849.92 875.52H174.08a25.6 25.6 0 0 1-25.6-25.6V174.08a25.6 25.6 0 0 1 25.6-25.6h337.92a25.7024 25.7024 0 0 1 25.6 24.8832L542.0032 327.68 849.92 325.632a25.7024 25.7024 0 0 1 25.6 25.6V849.92a25.6 25.6 0 0 1-25.6 25.6z m-650.24-51.2h624.64V377.0368l-307.2 1.8432a25.7024 25.7024 0 0 1-25.6-24.8832l-4.4032-154.3168H199.68z" fill="#8a8a8a" p-id="8829"/><path d="M849.92 378.88H522.24a25.6 25.6 0 0 1-25.6-25.6V235.52a25.6 25.6 0 0 1 25.6-25.6h227.5328A127.488 127.488 0 0 1 875.52 338.7392v14.5408A25.6 25.6 0 0 1 849.92 378.88z m-301.9776-51.2h275.6608a75.776 75.776 0 0 0-73.8304-66.56H547.9424zM407.3472 295.8336h-122.88a20.48 20.48 0 0 1 0-40.96h122.88a20.48 20.48 0 0 1 0 40.96zM716.1856 533.8112H307.8144a25.6 25.6 0 1 1 0-51.2h408.3712a25.6 25.6 0 0 1 0 51.2zM576 705.4336H307.8144a25.6 25.6 0 0 1 0-51.2h268.1856a25.6 25.6 0 0 1 0 51.2z" fill="#8a8a8a" p-id="8830"/></symbol><symbol id="icon-theme"><defs><style type="text/css"/></defs><path d="M514.6 79c-247.4 0-448 193.9-448 433 0 238.6 199.6 433 446.1 433h1.9c107-0.4 95.9-106 74-146.9-34.7-64.8 16.4-83.6 67.1-96.1 70.9-17.6 292.4 24.7 301.3-190.7C967.5 257 762 79 514.6 79z m378.5 429.6c-1.2 28.9-7.2 52.2-18 69.1-8.3 13.1-20 23.4-35.9 31.3-36.3 18.1-87.6 20.9-128.7 23.2-26.8 1.5-50 2.7-70.2 7.7-30.5 7.5-93.9 23.3-118.2 78-10.2 22.9-16.7 60.6 10 110.5 1.9 3.5 5.7 13.6 6.7 26.4 0.8 10.9-1 18.3-2.8 21.3-0.4 0.7-0.7 1.1-2.1 1.8-1.9 1-7.5 3.2-19.7 3.3h-1.6c-51.9 0-102.1-9.9-149.4-29.3-45.5-18.7-86.4-45.5-121.5-79.7-35-34-62.4-73.5-81.5-117.3-19.7-45.2-29.7-93.3-29.7-142.7 0-49.6 10-97.7 29.8-142.9C179.5 325.4 207 286 242.2 252c35.3-34.1 76.4-60.9 122.1-79.6 47.5-19.4 98-29.3 150.2-29.3 56.5 0 110.6 10.4 160.6 30.9 48.7 20 91 48.5 125.7 84.6 30.9 32.2 54.6 69.4 70.2 110.5 16.7 43.3 24.1 90.2 22.1 139.5z" p-id="5516" fill="#8a8a8a"/><path d="M279.8 392.1c-50.7 0-92 41.3-92 92s41.3 92 92 92 92-41.3 92-92-41.3-92-92-92z m0 120c-15.4 0-28-12.6-28-28s12.6-28 28-28 28 12.6 28 28c0 15.5-12.6 28-28 28zM720.2 297.1c0-50.7-41.3-92-92-92s-92 41.3-92 92 41.3 92 92 92 92-41.3 92-92z m-92 28c-15.4 0-28-12.6-28-28s12.6-28 28-28 28 12.6 28 28-12.5 28-28 28zM406.6 205.1c-50.7 0-92 41.3-92 92s41.3 92 92 92 92-41.3 92-92-41.3-92-92-92z m0 120c-15.4 0-28-12.6-28-28s12.6-28 28-28 28 12.6 28 28-12.6 28-28 28zM744.2 392.1c-50.7 0-92 41.3-92 92s41.3 92 92 92 92-41.3 92-92-41.3-92-92-92z m0 120c-15.4 0-28-12.6-28-28s12.6-28 28-28 28 12.6 28 28c0 15.5-12.6 28-28 28z" p-id="5517" fill="#8a8a8a"/></symbol><symbol id="icon-tools"><defs><style type="text/css"/></defs><path d="M536.509 515.037l-3.426-8.128-4.172 3.41zM431.34 549.696H194.782c-21.871 0-39.667 17.796-39.667 39.667v236.554c0 21.873 17.796 39.667 39.667 39.667h236.556c21.872 0 39.666-17.794 39.666-39.667V589.363c0-21.871-17.794-39.667-39.666-39.667z m-1.134 275.085H195.918V590.498h234.288V824.78zM192.211 508.242H428.77c21.871 0 39.665-17.794 39.665-39.664V232.02c0-21.87-17.794-39.664-39.665-39.664H192.21c-21.87 0-39.664 17.793-39.664 39.664v236.558c0 21.87 17.793 39.664 39.664 39.664z m1.138-275.087h234.285v234.286H193.349V233.155zM813.097 547.127H576.541c-21.862 0-39.647 17.794-39.647 39.665v236.556c0 21.871 17.785 39.665 39.647 39.665h236.556c21.881 0 39.684-17.794 39.684-39.665V586.792c0-21.87-17.803-39.665-39.684-39.665z m-1.116 275.086H577.697V587.927H811.98v234.286zM859.526 314.328L720.943 175.746c-7.087-7.065-16.505-10.957-26.516-10.957-10.009 0-19.422 3.892-26.537 10.981L529.377 314.303c-7.11 7.09-11.026 16.523-11.026 26.562s3.915 19.474 11 26.537l138.54 138.56c7.08 7.08 16.502 10.98 26.53 10.98 10.015 0 19.436-3.892 26.547-10.98L859.55 367.38c14.598-14.642 14.586-38.44-0.024-53.052zM694.429 471.414L563.901 340.865l130.528-130.547 130.548 130.547-130.548 130.549z" fill="#2C2C2C" p-id="4931"/></symbol><symbol id="icon-warning"><defs><style type="text/css"/></defs><path d="M512 0C229.2224 0 0 229.2224 0 512s229.2224 512 512 512 512-229.2224 512-512S794.7776 0 512 0z m34.133333 711.4752a34.133333 34.133333 0 0 1-68.266666 0v-17.066667a34.133333 34.133333 0 0 1 68.266666 0v17.066667z m0-142.9504a34.133333 34.133333 0 0 1-68.266666 0v-256a34.133333 34.133333 0 0 1 68.266666 0v256z" fill="#f4ea2a" p-id="3550"/></symbol></svg>