<?xml version="1.0" standalone="no"?><!DOCTYPE svg PUBLIC "-//W3C//DTD SVG 1.1//EN" "http://www.w3.org/Graphics/SVG/1.1/DTD/svg11.dtd"><svg t="1625059399113" class="icon" viewBox="0 0 1024 1024" version="1.1" xmlns="http://www.w3.org/2000/svg" p-id="2383" xmlns:xlink="http://www.w3.org/1999/xlink" width="32" height="32"><defs><style type="text/css"></style></defs><path d="M340.100754 835.974095c-110.445714 65.828571-210.407619 54.247619-282.136381-38.619428-71.558095-92.647619-58.197333-192.536381 32.182857-283.696762 2.925714-6.192762 7.241143-11.849143 12.848762-16.505905 208.749714-173.421714 312.807619-317.342476 316.123429-425.496381 1.389714-45.83619 59.538286-64.560762 87.430095-28.184381l397.726476 518.656c24.600381 32.085333 1.731048 78.433524-38.692571 78.433524-102.424381 0-203.215238 23.649524-302.567619 71.338667l85.991619 106.983619c43.227429 53.784381 33.401905 131.462095-21.918476 173.494857-55.320381 42.008381-135.192381 32.475429-178.41981-21.308953l-108.568381-135.094857zM201.202469 541.793524l23.795809 32.475428c41.935238 55.881143 74.849524 100.156952 98.816 132.876191 7.168 9.825524 13.55581 18.602667 19.163429 26.38019 138.166857-104.374857 281.088-166.15619 428.275809-184.612571L492.408564 185.295238c-42.349714 107.715048-139.873524 225.840762-291.206095 356.498286z m140.921904 192.365714l25.965715 35.401143a461.799619 461.799619 0 0 0-6.948572-10.361905c-4.681143-6.777905-10.727619-15.36-18.163809-25.673143l-0.828953 0.633905z m-209.67619-120.710095c-31.622095 44.178286-29.330286 82.822095 2.681905 124.294095 31.256381 40.448 66.755048 52.516571 115.321904 34.304l-5.339428-7.314286a15604.443429 15604.443429 0 0 0-112.688762-151.283809zM505.647421 925.257143c18.334476 22.820571 53.321143 26.989714 77.190095 8.874667 22.625524-17.188571 26.477714-47.835429 9.118476-69.412572l-73.142857-91.038476-86.454857 60.367238 73.289143 91.184762z m330.020571-622.128762a36.571429 36.571429 0 0 1-45.251047-57.465905l79.847619-62.854095a36.571429 36.571429 0 1 1 45.226666 57.465905l-79.823238 62.854095z m91.014096 141.702095a36.571429 36.571429 0 1 1-24.722286-68.827428l45.275428-16.262096a36.571429 36.571429 0 1 1 24.722286 68.827429l-45.275428 16.262095zM734.048183 174.738286a36.571429 36.571429 0 0 1-68.510476-25.575619l39.009523-104.472381a36.571429 36.571429 0 0 1 68.510477 25.575619l-39.009524 104.472381z" p-id="2384" fill="#bfbfbf"></path></svg>