<?xml version="1.0" standalone="no"?><!DOCTYPE svg PUBLIC "-//W3C//DTD SVG 1.1//EN" "http://www.w3.org/Graphics/SVG/1.1/DTD/svg11.dtd"><svg t="1623378383299" class="icon" viewBox="0 0 1024 1024" version="1.1" xmlns="http://www.w3.org/2000/svg" p-id="3316" xmlns:xlink="http://www.w3.org/1999/xlink" width="200" height="200"><defs><style type="text/css"></style></defs><path d="M927.68 616H765.63a28.7 28.7 0 0 0-3.43-13.34L656.74 406.31a30.64 30.64 0 0 0 23-29.63v-216.8a30.62 30.62 0 0 0-30.59-30.59h-274.2a30.62 30.62 0 0 0-30.59 30.59v216.8a30.64 30.64 0 0 0 24.12 29.89l-107 199.18a28.7 28.7 0 0 0-3.42 14.31H96.32a30.62 30.62 0 0 0-30.59 30.59v216.8A30.62 30.62 0 0 0 96.32 898h274.21a30.62 30.62 0 0 0 30.59-30.59V757.58h221.77v105.77a30.62 30.62 0 0 0 30.59 30.59h274.2a30.62 30.62 0 0 0 30.59-30.59v-216.8A30.62 30.62 0 0 0 927.68 616zM402 187h220v162.58H402z m-58.57 653.35h-220V677.74h220z m279.46-193.8v53.35H401.11v-49.25a30.62 30.62 0 0 0-30.59-30.59h-51.25l108.82-202.59a28.75 28.75 0 0 0 3.23-10.21h164.19a28.7 28.7 0 0 0 3.43 13.34L703.88 616h-50.41a30.62 30.62 0 0 0-30.58 30.55z m277.7 189.7h-220V673.64h220z" p-id="3317" fill="#cdcdcd"></path></svg>